HIERARCHY
ROOT Hips
{
	OFFSET -0.001795 -0.223333 0.028219
	CHANNELS 6 Xposition Yposition Zposition Zrotation Yrotation Xrotation 
	JOINT LeftUpLeg
	{
		OFFSET 0.069520 -0.091406 -0.006815
		CHANNELS 3 Zrotation Yrotation Xrotation
		JOINT LeftLeg
		{
			OFFSET 0.034277 -0.375199 -0.004496
			CHANNELS 3 Zrotation Yrotation Xrotation
			JOINT LeftFoot
			{
				OFFSET -0.013596 -0.397961 -0.043693
				CHANNELS 3 Zrotation Yrotation Xrotation
				JOINT LeftToe
				{
					OFFSET 0.026358 -0.055791 0.119288
					CHANNELS 3 Zrotation Yrotation Xrotation
					End Site
					{
						OFFSET 0.000000 0.000000 0.000000
					}
				}
			}
		}
	}
	JOINT RightUpLeg
	{
		OFFSET -0.067670 -0.090522 -0.004320
		CHANNELS 3 Zrotation Yrotation Xrotation
		JOINT RightLeg
		{
			OFFSET -0.038290 -0.382569 -0.008850
			CHANNELS 3 Zrotation Yrotation Xrotation
			JOINT RightFoot
			{
				OFFSET 0.015774 -0.398415 -0.042312
				CHANNELS 3 Zrotation Yrotation Xrotation
				JOINT RightToe
				{
					OFFSET -0.025372 -0.048144 0.123348
					CHANNELS 3 Zrotation Yrotation Xrotation
					End Site
					{
						OFFSET 0.000000 0.000000 0.000000
					}
				}
			}
		}
	}
	JOINT Spine
	{
		OFFSET -0.002533 0.108963 -0.026696
		CHANNELS 3 Zrotation Yrotation Xrotation
		JOINT Spine1
		{
			OFFSET 0.005487 0.135180 0.001092
			CHANNELS 3 Zrotation Yrotation Xrotation
			JOINT Spine2
			{
				OFFSET 0.001457 0.052922 0.025425
				CHANNELS 3 Zrotation Yrotation Xrotation
				JOINT Neck
				{
					OFFSET -0.002778 0.213870 -0.042857
					CHANNELS 3 Zrotation Yrotation Xrotation
					JOINT Head
					{
						OFFSET 0.005152 0.064970 0.051349
						CHANNELS 3 Zrotation Yrotation Xrotation
						End Site
						{
							OFFSET 0.000000 0.000000 0.000000
						}
					}
				}
				JOINT LeftShoulder
				{
					OFFSET 0.078845 0.121749 -0.034090
					CHANNELS 3 Zrotation Yrotation Xrotation
					JOINT LeftArm
					{
						OFFSET 0.090977 0.030469 -0.008868
						CHANNELS 3 Zrotation Yrotation Xrotation
						JOINT LeftForeArm
						{
							OFFSET 0.259612 -0.012772 -0.027456
							CHANNELS 3 Zrotation Yrotation Xrotation
							JOINT LeftHand
							{
								OFFSET 0.249234 0.008986 -0.001171
								CHANNELS 3 Zrotation Yrotation Xrotation
								End Site
								{
									OFFSET 0.000000 0.000000 0.000000
								}
							}
						}
					}
				}
				JOINT RightShoulder
				{
					OFFSET -0.081759 0.118833 -0.038615
					CHANNELS 3 Zrotation Yrotation Xrotation
					JOINT RightArm
					{
						OFFSET -0.096012 0.032551 -0.009143
						CHANNELS 3 Zrotation Yrotation Xrotation
						JOINT RightForeArm
						{
							OFFSET -0.253742 -0.013329 -0.021401
							CHANNELS 3 Zrotation Yrotation Xrotation
							JOINT RightHand
							{
								OFFSET -0.255298 0.007772 -0.005559
								CHANNELS 3 Zrotation Yrotation Xrotation
								End Site
								{
									OFFSET 0.000000 0.000000 0.000000
								}
							}
						}
					}
				}
			}
		}
	}
}
MOTION
Frames: 17
Frame Time: 0.050000
0.104771 0.761755 -1.813555 -7.336708 36.142956 -8.808510 11.334458 -4.348543 -35.584736 -28.433959 3.715931 63.286101 15.776142 35.548298 -15.867803 0.000000 0.000000 0.000000 -12.974475 -9.142075 -42.612220 2.715200 -4.609268 37.840419 -8.044769 -15.900526 11.125515 0.000000 0.000000 0.000000 -13.975567 -6.256011 57.718284 -5.577740 2.664641 1.026218 1.554765 28.321541 7.451969 18.192250 -7.825161 -15.094099 0.000000 0.000000 0.000000 -24.129378 -39.038863 7.739813 -37.172688 -31.052226 7.963514 82.986074 -74.582013 -77.719729 0.000000 0.000000 0.000000 14.964542 17.747599 15.190529 25.422518 40.806406 4.776322 -102.018193 20.868352 -10.234975 0.000000 0.000000 0.000000 
0.104260 0.762864 -1.803398 -6.691506 35.618764 -8.757907 11.125762 -3.999276 -34.065516 -27.730904 3.347604 63.532419 15.836534 35.324876 -15.707209 0.000000 0.000000 0.000000 -12.392871 -8.551144 -42.326889 2.646421 -4.560116 37.931753 -8.184309 -16.208940 11.168968 0.000000 0.000000 0.000000 -13.024140 -6.381286 56.994064 -5.914282 2.817599 1.112691 1.671899 26.578770 8.239545 17.463080 -6.965075 -16.105885 0.000000 0.000000 0.000000 -23.454504 -37.994639 7.724867 -38.463413 -31.504352 8.069444 80.229649 -74.201862 -74.451009 0.000000 0.000000 0.000000 15.507835 18.876956 15.733903 28.124901 42.132473 5.857687 -101.872512 21.420890 -11.080956 0.000000 0.000000 0.000000 
0.103817 0.764937 -1.790406 -5.895306 34.824119 -8.679796 10.666230 -3.629241 -32.295951 -27.128892 3.140045 63.985952 16.299521 36.405723 -16.268552 0.000000 0.000000 0.000000 -11.669685 -7.977502 -42.571158 2.140053 -4.527036 39.720816 -8.275322 -16.830794 8.784089 0.000000 0.000000 0.000000 -12.427276 -6.389153 56.949010 -5.760076 2.738380 1.430488 1.604847 25.635338 8.144029 17.067186 -6.364282 -17.108165 0.000000 0.000000 0.000000 -24.404156 -37.951850 8.116805 -38.195150 -30.750132 7.866481 79.725964 -74.204547 -73.251375 0.000000 0.000000 0.000000 15.693932 19.537781 15.930705 31.697496 42.396724 7.077980 -102.424189 24.230876 -14.460873 0.000000 0.000000 0.000000 
0.103251 0.768144 -1.774791 -5.025884 34.450897 -8.487953 9.687356 -3.286214 -29.867390 -25.598323 2.110733 63.524455 16.936475 37.075855 -15.600852 0.000000 0.000000 0.000000 -11.163433 -7.502091 -42.273636 1.611467 -4.488010 41.057050 -7.928951 -16.673197 5.855750 0.000000 0.000000 0.000000 -10.769390 -7.004391 56.663639 -5.580378 2.643270 1.532821 0.777347 23.162896 8.408390 15.515182 -5.380451 -17.302998 0.000000 0.000000 0.000000 -24.324005 -37.635002 8.796624 -38.012928 -30.716410 7.616262 79.760897 -73.860637 -72.138092 0.000000 0.000000 0.000000 16.357473 20.733002 16.409452 36.092449 41.939577 8.252287 -104.358847 28.098993 -19.925353 0.000000 0.000000 0.000000 
0.102019 0.770649 -1.755655 -3.994583 33.083724 -8.105871 9.132168 -2.711201 -26.804859 -23.865129 1.420358 62.657653 17.100433 37.085844 -16.628322 0.000000 0.000000 0.000000 -11.069258 -7.057089 -42.246939 1.765420 -4.686304 42.860041 -8.161492 -17.610548 3.684405 0.000000 0.000000 0.000000 -9.919935 -6.992098 56.717410 -5.612216 2.623951 2.432366 0.402322 21.154077 8.274468 14.358887 -4.547281 -18.089454 0.000000 0.000000 0.000000 -24.459121 -37.756358 9.909219 -35.819013 -31.547972 7.182272 82.234959 -71.728353 -71.076708 0.000000 0.000000 0.000000 16.785546 21.718250 16.604289 39.218491 41.255719 8.957703 -105.832590 32.233530 -25.965420 0.000000 0.000000 0.000000 
0.099074 0.773830 -1.732185 -3.275245 32.671474 -7.879691 8.882223 -2.134978 -23.041591 -21.098861 -0.190153 60.918610 17.171427 36.212127 -17.302267 0.000000 0.000000 0.000000 -10.791631 -6.586496 -41.451138 2.153646 -5.418618 45.183148 -8.356825 -18.900165 -0.738469 0.000000 0.000000 0.000000 -8.633609 -7.524226 56.743561 -4.739791 2.145735 3.238285 -1.054861 18.439389 8.497403 13.486714 -3.635637 -20.061885 0.000000 0.000000 0.000000 -23.143323 -37.637926 10.793033 -34.165228 -32.253429 6.648558 85.016569 -68.785861 -69.949920 0.000000 0.000000 0.000000 16.951529 23.452343 17.066798 43.525837 40.644572 10.129703 -107.255309 35.354122 -30.951029 0.000000 0.000000 0.000000 
0.093940 0.776101 -1.703295 -2.534945 31.329629 -7.910302 9.520136 -1.569307 -19.472801 -18.730047 -1.139368 60.131560 17.398515 35.877094 -16.854964 0.000000 0.000000 0.000000 -10.303144 -5.960774 -41.347882 2.604562 -6.110517 48.260281 -8.269420 -19.275677 -3.218241 0.000000 0.000000 0.000000 -7.599948 -7.751708 57.168219 -4.691647 2.126883 3.507240 -1.652456 16.687250 9.687537 13.030510 -3.031411 -22.081127 0.000000 0.000000 0.000000 -21.080323 -37.082263 11.080620 -34.328873 -33.326138 6.526964 87.855864 -65.893576 -69.439490 0.000000 0.000000 0.000000 15.527812 23.500924 15.974766 48.288141 39.687347 11.487496 -108.045403 38.483291 -35.180221 0.000000 0.000000 0.000000 
0.086142 0.779304 -1.669117 -1.945272 30.879336 -7.688667 9.666470 -1.189878 -15.671723 -15.285353 -3.028040 59.411243 17.555295 34.598293 -13.941221 0.000000 0.000000 0.000000 -8.791441 -5.118188 -41.570155 2.223692 -6.732312 52.321138 -8.129305 -19.382184 -5.500839 0.000000 0.000000 0.000000 -6.404079 -8.207800 57.024422 -4.084966 1.809775 3.654435 -2.526757 14.457420 10.635435 12.638679 -2.839215 -22.928851 0.000000 0.000000 0.000000 -19.883835 -36.628679 11.451586 -34.067069 -32.293880 5.912745 90.868764 -62.380727 -68.079178 0.000000 0.000000 0.000000 15.638032 24.421438 16.092328 52.063697 39.509045 12.630421 -107.474926 40.568407 -37.618615 0.000000 0.000000 0.000000 
0.076742 0.784462 -1.630694 -1.718034 29.492619 -7.568928 10.504877 -0.986555 -13.583659 -12.886722 -4.225123 60.411007 17.717316 33.688706 -7.470491 0.000000 0.000000 0.000000 -6.807838 -3.856487 -41.780834 1.864455 -7.154961 56.517090 -7.695352 -18.506765 -7.011833 0.000000 0.000000 0.000000 -5.459093 -8.336383 57.134309 -3.922937 1.759875 3.306515 -3.351483 13.119032 11.820854 11.987048 -2.158462 -25.082601 0.000000 0.000000 0.000000 -17.673370 -35.184953 11.017360 -36.406514 -31.770679 5.792201 89.572656 -60.409575 -64.631823 0.000000 0.000000 0.000000 14.505079 24.034301 15.096635 55.876014 38.581384 13.566887 -107.417855 43.236648 -40.702068 0.000000 0.000000 0.000000 
0.067719 0.791882 -1.591026 -1.047407 28.068684 -5.983083 11.954587 -0.969286 -13.782421 -12.362022 -4.250150 61.916251 19.034123 34.804652 1.073384 0.000000 0.000000 0.000000 -4.394716 -2.431076 -41.980357 0.826650 -6.935577 60.464054 -7.533423 -18.368762 -9.204848 0.000000 0.000000 0.000000 -4.164362 -8.316210 56.068131 -3.509797 1.581447 2.508719 -4.760481 11.512486 12.114767 12.664446 -2.730850 -25.083695 0.000000 0.000000 0.000000 -19.449086 -34.458016 11.200692 -36.777112 -28.160346 4.901002 87.965171 -59.619048 -61.570004 0.000000 0.000000 0.000000 16.698444 23.175501 15.338939 55.070766 37.648965 12.281403 -105.334260 47.452842 -44.480859 0.000000 0.000000 0.000000 
0.060599 0.800403 -1.552077 -1.093293 26.838205 -5.998049 12.421536 -0.942537 -14.417217 -10.049913 -5.989948 64.816740 17.638723 31.973243 7.093547 0.000000 0.000000 0.000000 -2.194684 -0.997555 -40.409292 0.211956 -7.054236 63.803539 -7.078284 -17.105327 -9.400789 0.000000 0.000000 0.000000 -2.920108 -8.371577 55.029130 -3.819490 1.745915 2.462367 -4.981910 10.299096 13.181315 12.081632 -2.680338 -24.622304 0.000000 0.000000 0.000000 -19.845615 -32.375311 10.472501 -38.602124 -27.209052 4.726342 85.038973 -58.710612 -57.677633 0.000000 0.000000 0.000000 16.805490 23.702587 15.379434 54.601252 37.078505 11.669680 -101.943469 49.463639 -44.774399 0.000000 0.000000 0.000000 
0.056951 0.809424 -1.515767 -0.245199 25.277466 -5.893315 10.442155 -1.031891 -16.299281 -9.974410 -5.779115 66.546649 18.114393 33.402288 3.614989 0.000000 0.000000 0.000000 -0.828646 0.189130 -36.946263 -0.460548 -6.372139 64.188897 -6.556368 -15.785448 -11.572112 0.000000 0.000000 0.000000 -2.812249 -7.547841 53.499362 -2.992675 1.282426 3.444616 -5.968620 9.799643 12.887534 11.896400 -2.577233 -24.915817 0.000000 0.000000 0.000000 -22.916795 -31.071741 9.983684 -39.165164 -23.271787 3.901148 81.995504 -59.500025 -55.527628 0.000000 0.000000 0.000000 16.142032 24.568424 15.463640 53.915737 35.451053 10.621923 -97.256307 51.131051 -43.586508 0.000000 0.000000 0.000000 
0.055709 0.815256 -1.482659 -0.287218 23.426482 -5.963096 8.901965 -1.353752 -19.926208 -12.295583 -3.150774 66.012335 17.370411 33.735942 -3.173554 0.000000 0.000000 0.000000 1.558132 1.433874 -34.367773 -1.264756 -5.401974 64.738790 -6.385830 -15.332956 -12.405434 0.000000 0.000000 0.000000 -2.976231 -6.702723 52.295482 -3.639376 1.662369 2.790751 -4.394556 11.423027 13.417729 11.425451 -2.066344 -25.295474 0.000000 0.000000 0.000000 -22.845403 -30.878831 9.454661 -42.034776 -20.962677 3.472944 80.734233 -61.091273 -56.446184 0.000000 0.000000 0.000000 15.649478 22.240347 14.285008 52.890612 32.742862 8.882240 -91.496475 54.406483 -42.455194 0.000000 0.000000 0.000000 
0.055508 0.817917 -1.451963 0.744558 21.579851 -6.236657 5.473613 -1.857192 -21.514300 -13.067791 -1.206686 60.271557 14.773954 30.100636 -13.483606 0.000000 0.000000 0.000000 2.783678 2.067920 -30.471670 -1.773373 -4.608038 65.137531 -6.128203 -14.483882 -14.057495 0.000000 0.000000 0.000000 -3.999389 -5.325069 50.242705 -3.520734 1.518077 4.743919 -4.862139 12.816791 12.104635 12.906264 -2.291479 -27.489093 0.000000 0.000000 0.000000 -22.461518 -29.306326 8.051304 -43.694187 -19.734950 3.358784 80.190332 -64.807297 -60.104354 0.000000 0.000000 0.000000 16.026551 20.347372 13.626222 52.723179 30.963788 7.975860 -85.510524 58.324314 -41.868754 0.000000 0.000000 0.000000 
0.054689 0.817233 -1.422757 0.522627 20.929498 -7.272135 2.526884 -2.526633 -23.203654 -13.494605 -0.373298 56.663817 13.068224 25.709033 -17.300819 0.000000 0.000000 0.000000 3.953747 2.372478 -26.568251 -1.633089 -4.716302 64.760695 -5.875690 -13.570277 -16.355955 0.000000 0.000000 0.000000 -3.798887 -5.037845 48.952032 -3.863973 1.757761 3.904195 -4.567130 13.457359 12.191383 13.518325 -2.401142 -28.191265 0.000000 0.000000 0.000000 -22.686811 -28.634450 7.309602 -43.040207 -18.855344 3.189468 79.925799 -67.306741 -62.575780 0.000000 0.000000 0.000000 15.923842 18.618845 12.792551 54.599416 28.212669 7.003284 -80.501799 60.932772 -40.142270 0.000000 0.000000 0.000000 
0.051618 0.811440 -1.395110 -0.532424 19.702806 -8.934798 1.479301 -2.523143 -22.298465 -12.222049 -0.857113 56.416833 13.181122 25.981333 -17.733573 0.000000 0.000000 0.000000 6.087698 2.939950 -25.934948 -1.204264 -5.303899 68.294430 -5.577046 -12.034195 -15.452039 0.000000 0.000000 0.000000 -4.309194 -4.279590 46.896402 -3.820298 1.808385 2.866114 -3.814097 14.901976 14.291200 13.716186 -1.859675 -30.745058 0.000000 0.000000 0.000000 -19.726953 -28.117567 6.711709 -44.279485 -20.221803 3.410623 78.212386 -68.025434 -62.683263 0.000000 0.000000 0.000000 16.577432 16.974851 12.386200 56.658156 26.745017 6.531625 -75.063783 63.318883 -37.673420 0.000000 0.000000 0.000000 
0.046167 0.805061 -1.370491 -1.865981 20.227163 -10.827529 0.684087 -2.474131 -21.060204 -10.031836 -2.844490 58.905010 13.232691 25.973917 -18.404843 0.000000 0.000000 0.000000 5.411223 2.834888 -27.537998 0.108104 -8.147784 75.815491 -3.980275 -7.575825 -8.554749 0.000000 0.000000 0.000000 -4.795018 -4.021169 45.351890 -2.703750 1.276309 2.323958 -3.667440 14.024246 15.846550 13.964331 -2.079348 -30.730673 0.000000 0.000000 0.000000 -18.253151 -27.243092 6.387792 -43.534452 -20.730518 3.364068 78.702726 -69.441557 -64.593794 0.000000 0.000000 0.000000 16.026733 14.584710 10.768401 61.441791 24.594156 6.509459 -75.094819 66.259060 -39.328535 0.000000 0.000000 0.000000 
